{"title":"Embarrassing Bodies - S07E01 - Dan &amp; Jiya &amp; Sennet","uid":15978510,"size":389083713,"categoryP":"video","categoryS":"tv_shows","magnet":"?xt=urn:btih:a30cc99bdb210a9c2c93392482739431f6719e9c&amp;dn=Embarrassing+Bodies+-+S07E01+-+Dan+%26amp%3B+Jiya+%26amp%3B+Sennet&amp;tr=udp%3A%2F%2Ftracker.leechers-paradise.org%3A6969&amp;tr=udp%3A%2F%2Fzer0day.ch%3A1337&amp;tr=udp%3A%2F%2Fopen.demonii.com%3A1337&amp;tr=udp%3A%2F%2Ftracker.coppersurfer.tk%3A6969&amp;tr=udp%3A%2F%2Fexodus.desync.com%3A6969","seeders":5,"leechers":4,"uploader":"Bullrout","files":1,"time":1475870776,"description":"Embarrassing Bodies - S07E01 - Dan &amp; Jiya &amp; Sennet\r\n\r\nYoung dad Dan comes to meet Dr Christian in the clinic with a hole in his head and looking for help to rebuild his face. Meanwhile, Jaya wants to know if Dr Dawn can help her find a voice, after an unusual medical condition leaves her with a distorted voice box.\r\n\r\nComplete name                            : Embarrassing Bodies - S07E01 - Dan &amp; Jiya &amp; Sennet.mp4\r\nFormat                                   : MPEG-4\r\nFormat profile                           : Base Media / Version 2\r\nCodec ID                                 : mp42 (mp42/isom/avc1)\r\nFile size                                : 371 MiB\r\nDuration                                 : 46 min 47 s\r\nOverall bit rate mode                    : Variable\r\nOverall bit rate                         : 1 109 kb/s\r\n\r\nVideo\r\nID                                       : 2\r\nFormat                                   : AVC\r\nFormat/Info                              : Advanced Video Codec\r\nFormat profile                           :   \r\nFormat settings, CABAC                   : Yes\r\nFormat settings, ReFrames                : 3 frames\r\nCodec ID                                 : avc1\r\nCodec ID/Info                            : Advanced Video Coding\r\nDuration                                 : 46 min 47 s\r\nBit rate mode                            : Variable\r\nBit rate                                 : 977 kb/s\r\nMaximum bit rate                         : 1 000 kb/s\r\nWidth                                    : 720 pixels\r\nHeight                                   : 404 pixels\r\nDisplay aspect ratio                     : 16:9\r\nOriginal display aspect ratio            : 16:9\r\nFrame rate mode                          : Constant\r\nFrame rate                               : 25.000 FPS\r\nStandard                                 : PAL\r\nColor space                              : YUV\r\nChroma subsampling                       : 4:2:0\r\nBit depth                                : 8 bits\r\nScan type                                : Progressive\r\nBits/(Pixel*Frame)                       : 0.134\r\nStream size                              : 327 MiB (88%)\r\nWriting library                          : x264 core 112\r\nColor range                              : Limited\r\nColor primaries                          : BT.601 PAL\r\nTransfer characteristics                 : BT.470 System B, BT.470 System G\r\nMatrix coefficients                      : BT.601\r\n\r\nAudio\r\nID                                       : 1\r\nFormat                                   : AAC\r\nFormat/Info                              : Advanced Audio Codec\r\nFormat profile                           : LC\r\nCodec ID                                 : 40\r\nDuration                                 : 46 min 47 s\r\nBit rate mode                            : Variable\r\nBit rate                                 : 128 kb/s\r\nMaximum bit rate                         : 576 kb/s\r\nChannel(s)                               : 2 channels\r\nChannel positions                        : Front: L R\r\nSampling rate                            : 48.0 kHz\r\nFrame rate                               : 46.875 FPS (1024 spf)\r\nCompression mode                         : Lossy\r\nStream size                              : 42.9 MiB (12%)","torrent":{"xt":"urn:btih:a30cc99bdb210a9c2c93392482739431f6719e9c","amp;dn":"Embarrassing+Bodies+-+S07E01+-+Dan+%26amp%3B+Jiya+%26amp%3B+Sennet","amp;tr":["udp%3A%2F%2Ftracker.leechers-paradise.org%3A6969","udp%3A%2F%2Fzer0day.ch%3A1337","udp%3A%2F%2Fopen.demonii.com%3A1337","udp%3A%2F%2Ftracker.coppersurfer.tk%3A6969","udp%3A%2F%2Fexodus.desync.com%3A6969"],"infoHash":"a30cc99bdb210a9c2c93392482739431f6719e9c","infoHashBuffer":{"type":"Buffer","data":[163,12,201,155,219,33,10,156,44,147,57,36,130,115,148,49,246,113,158,156]},"announce":[],"urlList":[]}}